<?xml version="1.0" encoding="iso-8859-1"?>
<!-- Generator: Adobe Illustrator 18.0.0, SVG Export Plug-In . SVG Version: 6.00 Build 0)  -->
<!DOCTYPE svg PUBLIC "-//W3C//DTD SVG 1.1//EN" "http://www.w3.org/Graphics/SVG/1.1/DTD/svg11.dtd">
<svg version="1.1" id="Capa_1" xmlns="http://www.w3.org/2000/svg" xmlns:xlink="http://www.w3.org/1999/xlink" x="0px" y="0px"
	 viewBox="0 0 237.218 237.218" style="enable-background:new 0 0 217.218 237.218;" xml:space="preserve">
<g id="Butaca">
	<path d="M187.712,202.094v-12h-40.421H97.198H56.776v12h40.422v23.124H81.197v12h16.001h50.093h16v-12h-16v-23.124H187.712z
		 M135.291,225.218h-26.093v-23.124h26.093V225.218z"/>
	<path d="M36.467,170.541h0.258c2.484,0,4.852-0.496,7.025-1.376c2.064,9.785,10.763,17.153,21.152,17.153h107.413
		c10.39,0,19.089-7.368,21.153-17.153c2.172,0.88,4.54,1.376,7.024,1.376h0.259c10.355,0,18.78-8.425,18.78-18.781V86.598h-30.438
		l-3.574-57.281C184.412,12.877,170.638,0,154.161,0H83.897C67.532,0,53.764,12.785,52.552,29.139l-3.944,57.459H17.687v65.163
		C17.687,162.116,26.111,170.541,36.467,170.541z M172.315,174.318H64.902c-5.304,0-9.619-4.315-9.619-9.619v-0.111l0.107-1.562
		c0.663-4.661,4.67-8.261,9.511-8.261h107.413c4.884,0,8.92,3.662,9.53,8.382l0.089,1.422v0.13
		C181.935,170.003,177.619,174.318,172.315,174.318z M193.712,98.598h13.819v53.163c0,3.739-3.042,6.781-6.78,6.781h-0.259
		c-3.738,0-6.78-3.042-6.78-6.781V98.598z M64.521,29.993C65.269,19.903,73.78,12,83.897,12h70.264
		c10.186,0,18.701,7.96,19.384,18.093l7.134,114.356c-2.574-1.084-5.4-1.685-8.364-1.685H64.902c-2.914,0-5.694,0.583-8.233,1.633
		L64.521,29.993z M29.687,98.598h13.819v53.163c0,3.739-3.042,6.781-6.78,6.781h-0.258c-3.739,0-6.781-3.042-6.781-6.781V98.598z"/>
</g>
<g>
</g>
<g>
</g>
<g>
</g>
<g>
</g>
<g>
</g>
<g>
</g>
<g>
</g>
<g>
</g>
<g>
</g>
<g>
</g>
<g>
</g>
<g>
</g>
<g>
</g>
<g>
</g>
<g>
</g>
</svg>
